<mxfile host="app.diagrams.net" modified="2023-06-25T19:57:08.413Z" agent="Mozilla/5.0 (Macintosh; Intel Mac OS X 10.15; rv:109.0) Gecko/20100101 Firefox/114.0" etag="2UoxQPxv97WBKR1nDY35" version="21.4.0" type="device">
  <diagram name="Страница 1" id="1fomyH5tn99syL91oA3N">
    <mxGraphModel dx="3031" dy="1099" grid="1" gridSize="10" guides="1" tooltips="1" connect="1" arrows="1" fold="1" page="1" pageScale="1" pageWidth="827" pageHeight="1169" math="0" shadow="0">
      <root>
        <mxCell id="0" />
        <mxCell id="1" parent="0" />
        <mxCell id="RmznwL4d9NSOxr5QhM6p-1" value="Автомобили" style="rounded=0;whiteSpace=wrap;html=1;" parent="1" vertex="1">
          <mxGeometry x="640" y="565" width="120" height="60" as="geometry" />
        </mxCell>
        <mxCell id="RmznwL4d9NSOxr5QhM6p-2" value="Сотрудник" style="rounded=0;whiteSpace=wrap;html=1;" parent="1" vertex="1">
          <mxGeometry x="840" y="200" width="120" height="60" as="geometry" />
        </mxCell>
        <mxCell id="RmznwL4d9NSOxr5QhM6p-9" value="Вызов" style="rhombus;whiteSpace=wrap;html=1;" parent="1" vertex="1">
          <mxGeometry x="190" y="190" width="160" height="80" as="geometry" />
        </mxCell>
        <mxCell id="RmznwL4d9NSOxr5QhM6p-16" value="Адрес" style="ellipse;whiteSpace=wrap;html=1;" parent="1" vertex="1">
          <mxGeometry x="1000" y="160" width="90" height="50" as="geometry" />
        </mxCell>
        <mxCell id="RmznwL4d9NSOxr5QhM6p-18" value="Номер телефона" style="ellipse;whiteSpace=wrap;html=1;" parent="1" vertex="1">
          <mxGeometry x="950" y="300" width="90" height="50" as="geometry" />
        </mxCell>
        <mxCell id="RmznwL4d9NSOxr5QhM6p-19" value="ФИО" style="ellipse;whiteSpace=wrap;html=1;" parent="1" vertex="1">
          <mxGeometry x="930" y="110" width="90" height="50" as="geometry" />
        </mxCell>
        <mxCell id="RmznwL4d9NSOxr5QhM6p-20" value="Паспорт" style="ellipse;whiteSpace=wrap;html=1;" parent="1" vertex="1">
          <mxGeometry x="1010" y="245" width="90" height="50" as="geometry" />
        </mxCell>
        <mxCell id="RmznwL4d9NSOxr5QhM6p-22" value="График работы" style="rounded=0;whiteSpace=wrap;html=1;" parent="1" vertex="1">
          <mxGeometry x="560" y="200" width="120" height="60" as="geometry" />
        </mxCell>
        <mxCell id="RmznwL4d9NSOxr5QhM6p-30" value="Стоимость" style="ellipse;whiteSpace=wrap;html=1;" parent="1" vertex="1">
          <mxGeometry x="250" y="630" width="90" height="50" as="geometry" />
        </mxCell>
        <mxCell id="RmznwL4d9NSOxr5QhM6p-31" value="Тех. характеристики" style="ellipse;whiteSpace=wrap;html=1;" parent="1" vertex="1">
          <mxGeometry x="670" y="690" width="90" height="50" as="geometry" />
        </mxCell>
        <mxCell id="RmznwL4d9NSOxr5QhM6p-32" value="Страна" style="ellipse;whiteSpace=wrap;html=1;" parent="1" vertex="1">
          <mxGeometry x="30" y="650" width="90" height="50" as="geometry" />
        </mxCell>
        <mxCell id="RmznwL4d9NSOxr5QhM6p-34" value="Номер" style="ellipse;whiteSpace=wrap;html=1;" parent="1" vertex="1">
          <mxGeometry x="580" y="690" width="90" height="50" as="geometry" />
        </mxCell>
        <mxCell id="RmznwL4d9NSOxr5QhM6p-36" value="Год выпуска" style="ellipse;whiteSpace=wrap;html=1;" parent="1" vertex="1">
          <mxGeometry x="765" y="680" width="90" height="50" as="geometry" />
        </mxCell>
        <mxCell id="RmznwL4d9NSOxr5QhM6p-37" value="Пробег" style="ellipse;whiteSpace=wrap;html=1;" parent="1" vertex="1">
          <mxGeometry x="504" y="655" width="90" height="50" as="geometry" />
        </mxCell>
        <mxCell id="RmznwL4d9NSOxr5QhM6p-38" value="Дата последнего ТО" style="ellipse;whiteSpace=wrap;html=1;" parent="1" vertex="1">
          <mxGeometry x="820" y="600" width="100" height="60" as="geometry" />
        </mxCell>
        <mxCell id="RmznwL4d9NSOxr5QhM6p-40" value="" style="endArrow=none;html=1;rounded=0;entryX=1;entryY=0.75;entryDx=0;entryDy=0;exitX=0;exitY=0;exitDx=0;exitDy=0;" parent="1" source="RmznwL4d9NSOxr5QhM6p-30" target="RmznwL4d9NSOxr5QhM6p-112" edge="1">
          <mxGeometry width="50" height="50" relative="1" as="geometry">
            <mxPoint x="730" y="520" as="sourcePoint" />
            <mxPoint x="780" y="470" as="targetPoint" />
          </mxGeometry>
        </mxCell>
        <mxCell id="RmznwL4d9NSOxr5QhM6p-42" value="" style="endArrow=none;html=1;rounded=0;entryX=0.75;entryY=1;entryDx=0;entryDy=0;exitX=0;exitY=0;exitDx=0;exitDy=0;" parent="1" source="RmznwL4d9NSOxr5QhM6p-18" target="RmznwL4d9NSOxr5QhM6p-2" edge="1">
          <mxGeometry width="50" height="50" relative="1" as="geometry">
            <mxPoint x="840" y="330" as="sourcePoint" />
            <mxPoint x="890" y="280" as="targetPoint" />
          </mxGeometry>
        </mxCell>
        <mxCell id="RmznwL4d9NSOxr5QhM6p-44" value="" style="endArrow=none;html=1;rounded=0;entryX=0.75;entryY=1;entryDx=0;entryDy=0;exitX=0.362;exitY=-0.034;exitDx=0;exitDy=0;exitPerimeter=0;" parent="1" source="RmznwL4d9NSOxr5QhM6p-31" target="RmznwL4d9NSOxr5QhM6p-1" edge="1">
          <mxGeometry width="50" height="50" relative="1" as="geometry">
            <mxPoint x="760" y="600" as="sourcePoint" />
            <mxPoint x="810" y="550" as="targetPoint" />
          </mxGeometry>
        </mxCell>
        <mxCell id="RmznwL4d9NSOxr5QhM6p-45" value="" style="endArrow=none;html=1;rounded=0;exitX=0.5;exitY=0;exitDx=0;exitDy=0;entryX=0.5;entryY=1;entryDx=0;entryDy=0;" parent="1" source="RmznwL4d9NSOxr5QhM6p-34" target="RmznwL4d9NSOxr5QhM6p-1" edge="1">
          <mxGeometry width="50" height="50" relative="1" as="geometry">
            <mxPoint x="560" y="600" as="sourcePoint" />
            <mxPoint x="610" y="550" as="targetPoint" />
          </mxGeometry>
        </mxCell>
        <mxCell id="RmznwL4d9NSOxr5QhM6p-47" value="" style="endArrow=none;html=1;rounded=0;entryX=0;entryY=0.5;entryDx=0;entryDy=0;exitX=0.957;exitY=1.03;exitDx=0;exitDy=0;exitPerimeter=0;" parent="1" source="RmznwL4d9NSOxr5QhM6p-1" target="RmznwL4d9NSOxr5QhM6p-36" edge="1">
          <mxGeometry width="50" height="50" relative="1" as="geometry">
            <mxPoint x="670" y="610" as="sourcePoint" />
            <mxPoint x="780" y="470" as="targetPoint" />
          </mxGeometry>
        </mxCell>
        <mxCell id="RmznwL4d9NSOxr5QhM6p-49" value="" style="endArrow=none;html=1;rounded=0;entryX=0;entryY=1;entryDx=0;entryDy=0;exitX=0.8;exitY=0.108;exitDx=0;exitDy=0;exitPerimeter=0;" parent="1" source="RmznwL4d9NSOxr5QhM6p-37" target="RmznwL4d9NSOxr5QhM6p-1" edge="1">
          <mxGeometry width="50" height="50" relative="1" as="geometry">
            <mxPoint x="460" y="600" as="sourcePoint" />
            <mxPoint x="510" y="550" as="targetPoint" />
          </mxGeometry>
        </mxCell>
        <mxCell id="RmznwL4d9NSOxr5QhM6p-54" value="" style="endArrow=none;html=1;rounded=0;entryX=1;entryY=1;entryDx=0;entryDy=0;" parent="1" source="RmznwL4d9NSOxr5QhM6p-67" target="RmznwL4d9NSOxr5QhM6p-9" edge="1">
          <mxGeometry width="50" height="50" relative="1" as="geometry">
            <mxPoint x="390" y="335" as="sourcePoint" />
            <mxPoint x="440" y="285" as="targetPoint" />
          </mxGeometry>
        </mxCell>
        <mxCell id="RmznwL4d9NSOxr5QhM6p-55" value="" style="endArrow=none;html=1;rounded=0;exitX=0.673;exitY=0.018;exitDx=0;exitDy=0;exitPerimeter=0;" parent="1" source="RmznwL4d9NSOxr5QhM6p-62" target="RmznwL4d9NSOxr5QhM6p-9" edge="1">
          <mxGeometry width="50" height="50" relative="1" as="geometry">
            <mxPoint x="300" y="320" as="sourcePoint" />
            <mxPoint x="350" y="270" as="targetPoint" />
          </mxGeometry>
        </mxCell>
        <mxCell id="RmznwL4d9NSOxr5QhM6p-56" value="" style="endArrow=none;html=1;rounded=0;exitX=0.201;exitY=0.313;exitDx=0;exitDy=0;exitPerimeter=0;entryX=0.967;entryY=0.74;entryDx=0;entryDy=0;entryPerimeter=0;" parent="1" source="RmznwL4d9NSOxr5QhM6p-9" target="RmznwL4d9NSOxr5QhM6p-66" edge="1">
          <mxGeometry width="50" height="50" relative="1" as="geometry">
            <mxPoint x="220" y="260" as="sourcePoint" />
            <mxPoint x="270" y="210" as="targetPoint" />
          </mxGeometry>
        </mxCell>
        <mxCell id="RmznwL4d9NSOxr5QhM6p-57" value="" style="endArrow=none;html=1;rounded=0;exitX=0.34;exitY=0.146;exitDx=0;exitDy=0;exitPerimeter=0;entryX=0.571;entryY=1.053;entryDx=0;entryDy=0;entryPerimeter=0;" parent="1" source="RmznwL4d9NSOxr5QhM6p-9" target="RmznwL4d9NSOxr5QhM6p-65" edge="1">
          <mxGeometry width="50" height="50" relative="1" as="geometry">
            <mxPoint x="304" y="240" as="sourcePoint" />
            <mxPoint x="354" y="190" as="targetPoint" />
          </mxGeometry>
        </mxCell>
        <mxCell id="RmznwL4d9NSOxr5QhM6p-58" value="" style="endArrow=none;html=1;rounded=0;exitX=0.591;exitY=0.086;exitDx=0;exitDy=0;exitPerimeter=0;" parent="1" source="RmznwL4d9NSOxr5QhM6p-9" target="RmznwL4d9NSOxr5QhM6p-64" edge="1">
          <mxGeometry width="50" height="50" relative="1" as="geometry">
            <mxPoint x="414" y="240" as="sourcePoint" />
            <mxPoint x="464" y="190" as="targetPoint" />
          </mxGeometry>
        </mxCell>
        <mxCell id="RmznwL4d9NSOxr5QhM6p-60" value="" style="endArrow=none;html=1;rounded=0;exitX=0.867;exitY=-0.005;exitDx=0;exitDy=0;entryX=0.5;entryY=1;entryDx=0;entryDy=0;exitPerimeter=0;" parent="1" source="RmznwL4d9NSOxr5QhM6p-2" target="RmznwL4d9NSOxr5QhM6p-19" edge="1">
          <mxGeometry width="50" height="50" relative="1" as="geometry">
            <mxPoint x="660" y="240" as="sourcePoint" />
            <mxPoint x="710" y="190" as="targetPoint" />
          </mxGeometry>
        </mxCell>
        <mxCell id="RmznwL4d9NSOxr5QhM6p-61" value="" style="endArrow=none;html=1;rounded=0;entryX=0;entryY=0.5;entryDx=0;entryDy=0;exitX=0.926;exitY=0.001;exitDx=0;exitDy=0;exitPerimeter=0;" parent="1" source="RmznwL4d9NSOxr5QhM6p-2" target="RmznwL4d9NSOxr5QhM6p-16" edge="1">
          <mxGeometry width="50" height="50" relative="1" as="geometry">
            <mxPoint x="930" y="230" as="sourcePoint" />
            <mxPoint x="990" y="180" as="targetPoint" />
          </mxGeometry>
        </mxCell>
        <mxCell id="RmznwL4d9NSOxr5QhM6p-62" value="Дата" style="ellipse;whiteSpace=wrap;html=1;" parent="1" vertex="1">
          <mxGeometry x="180" y="340" width="90" height="50" as="geometry" />
        </mxCell>
        <mxCell id="RmznwL4d9NSOxr5QhM6p-64" value="Куда" style="ellipse;whiteSpace=wrap;html=1;" parent="1" vertex="1">
          <mxGeometry x="280" y="85" width="90" height="50" as="geometry" />
        </mxCell>
        <mxCell id="RmznwL4d9NSOxr5QhM6p-65" value="Откуда" style="ellipse;whiteSpace=wrap;html=1;" parent="1" vertex="1">
          <mxGeometry x="90" y="120" width="90" height="50" as="geometry" />
        </mxCell>
        <mxCell id="RmznwL4d9NSOxr5QhM6p-66" value="Код пассажира" style="ellipse;whiteSpace=wrap;html=1;" parent="1" vertex="1">
          <mxGeometry x="40" y="170" width="90" height="50" as="geometry" />
        </mxCell>
        <mxCell id="RmznwL4d9NSOxr5QhM6p-67" value="&lt;u&gt;Код вызова&lt;/u&gt;" style="ellipse;whiteSpace=wrap;html=1;" parent="1" vertex="1">
          <mxGeometry x="370" y="290" width="90" height="50" as="geometry" />
        </mxCell>
        <mxCell id="RmznwL4d9NSOxr5QhM6p-71" value="" style="endArrow=none;html=1;rounded=0;entryX=0;entryY=0.5;entryDx=0;entryDy=0;exitX=1.007;exitY=0.646;exitDx=0;exitDy=0;exitPerimeter=0;" parent="1" source="RmznwL4d9NSOxr5QhM6p-2" target="RmznwL4d9NSOxr5QhM6p-20" edge="1">
          <mxGeometry width="50" height="50" relative="1" as="geometry">
            <mxPoint x="940" y="280" as="sourcePoint" />
            <mxPoint x="990" y="230" as="targetPoint" />
          </mxGeometry>
        </mxCell>
        <mxCell id="RmznwL4d9NSOxr5QhM6p-74" value="" style="endArrow=none;html=1;rounded=0;exitX=0.5;exitY=0;exitDx=0;exitDy=0;" parent="1" edge="1">
          <mxGeometry width="50" height="50" relative="1" as="geometry">
            <mxPoint x="-45.43" y="200" as="sourcePoint" />
            <mxPoint x="-45.43" y="160" as="targetPoint" />
          </mxGeometry>
        </mxCell>
        <mxCell id="RmznwL4d9NSOxr5QhM6p-78" value="" style="endArrow=none;html=1;rounded=0;entryX=0;entryY=0.5;entryDx=0;entryDy=0;exitX=1;exitY=0.75;exitDx=0;exitDy=0;" parent="1" source="RmznwL4d9NSOxr5QhM6p-1" target="RmznwL4d9NSOxr5QhM6p-38" edge="1">
          <mxGeometry width="50" height="50" relative="1" as="geometry">
            <mxPoint x="560" y="520" as="sourcePoint" />
            <mxPoint x="610" y="470" as="targetPoint" />
          </mxGeometry>
        </mxCell>
        <mxCell id="RmznwL4d9NSOxr5QhM6p-88" value="Номер пассажира" style="ellipse;whiteSpace=wrap;html=1;" parent="1" vertex="1">
          <mxGeometry x="-230" y="130" width="90" height="50" as="geometry" />
        </mxCell>
        <mxCell id="RmznwL4d9NSOxr5QhM6p-89" value="ФИО" style="ellipse;whiteSpace=wrap;html=1;" parent="1" vertex="1">
          <mxGeometry x="-90" y="110" width="90" height="50" as="geometry" />
        </mxCell>
        <mxCell id="RmznwL4d9NSOxr5QhM6p-91" value="&lt;u&gt;Код пассажира&lt;/u&gt;" style="ellipse;whiteSpace=wrap;html=1;" parent="1" vertex="1">
          <mxGeometry x="-210" y="270" width="90" height="50" as="geometry" />
        </mxCell>
        <mxCell id="RmznwL4d9NSOxr5QhM6p-92" value="" style="endArrow=none;html=1;rounded=0;" parent="1" edge="1">
          <mxGeometry width="50" height="50" relative="1" as="geometry">
            <mxPoint x="-10" y="370" as="sourcePoint" />
            <mxPoint x="-10" y="370" as="targetPoint" />
            <Array as="points">
              <mxPoint x="-100" y="370" />
              <mxPoint x="-80" y="330" />
              <mxPoint x="-30" y="330" />
            </Array>
          </mxGeometry>
        </mxCell>
        <mxCell id="RmznwL4d9NSOxr5QhM6p-93" value="" style="endArrow=none;html=1;rounded=0;entryX=0;entryY=0.75;entryDx=0;entryDy=0;exitX=0.72;exitY=0.001;exitDx=0;exitDy=0;exitPerimeter=0;" parent="1" source="RmznwL4d9NSOxr5QhM6p-91" edge="1">
          <mxGeometry width="50" height="50" relative="1" as="geometry">
            <mxPoint x="-110" y="260" as="sourcePoint" />
            <mxPoint x="-114.5454545454545" y="243.63636363636363" as="targetPoint" />
          </mxGeometry>
        </mxCell>
        <mxCell id="RmznwL4d9NSOxr5QhM6p-94" value="" style="endArrow=none;html=1;rounded=0;exitX=0;exitY=0;exitDx=0;exitDy=0;entryX=1;entryY=1;entryDx=0;entryDy=0;" parent="1" target="RmznwL4d9NSOxr5QhM6p-88" edge="1">
          <mxGeometry width="50" height="50" relative="1" as="geometry">
            <mxPoint x="-102.85714285714289" y="208.57142857142867" as="sourcePoint" />
            <mxPoint x="-110" y="170" as="targetPoint" />
          </mxGeometry>
        </mxCell>
        <mxCell id="RmznwL4d9NSOxr5QhM6p-99" value="Карта" style="text;strokeColor=none;align=center;fillColor=none;html=1;verticalAlign=middle;whiteSpace=wrap;rounded=0;" parent="1" vertex="1">
          <mxGeometry x="-80" y="330" width="60" height="30" as="geometry" />
        </mxCell>
        <mxCell id="RmznwL4d9NSOxr5QhM6p-101" value="Номер карты" style="ellipse;whiteSpace=wrap;html=1;" parent="1" vertex="1">
          <mxGeometry x="-170" y="390" width="90" height="50" as="geometry" />
        </mxCell>
        <mxCell id="RmznwL4d9NSOxr5QhM6p-103" value="" style="endArrow=none;html=1;rounded=0;exitX=1;exitY=0;exitDx=0;exitDy=0;" parent="1" source="RmznwL4d9NSOxr5QhM6p-101" edge="1">
          <mxGeometry width="50" height="50" relative="1" as="geometry">
            <mxPoint x="-80.87" y="400" as="sourcePoint" />
            <mxPoint x="-80.87" y="370" as="targetPoint" />
          </mxGeometry>
        </mxCell>
        <mxCell id="RmznwL4d9NSOxr5QhM6p-112" value="Модель автомобиля" style="rounded=0;whiteSpace=wrap;html=1;" parent="1" vertex="1">
          <mxGeometry x="110" y="565" width="120" height="60" as="geometry" />
        </mxCell>
        <mxCell id="RmznwL4d9NSOxr5QhM6p-114" value="Модель" style="ellipse;whiteSpace=wrap;html=1;" parent="1" vertex="1">
          <mxGeometry x="-50" y="590" width="90" height="50" as="geometry" />
        </mxCell>
        <mxCell id="RmznwL4d9NSOxr5QhM6p-115" value="Марка" style="ellipse;whiteSpace=wrap;html=1;" parent="1" vertex="1">
          <mxGeometry x="-50" y="520" width="90" height="50" as="geometry" />
        </mxCell>
        <mxCell id="RmznwL4d9NSOxr5QhM6p-117" value="&lt;u&gt;Код модели&lt;br&gt;&lt;/u&gt;" style="ellipse;whiteSpace=wrap;html=1;" parent="1" vertex="1">
          <mxGeometry x="50" y="470" width="90" height="50" as="geometry" />
        </mxCell>
        <mxCell id="RmznwL4d9NSOxr5QhM6p-119" value="" style="endArrow=none;html=1;rounded=0;exitX=0.25;exitY=1;exitDx=0;exitDy=0;entryX=1;entryY=0;entryDx=0;entryDy=0;" parent="1" source="RmznwL4d9NSOxr5QhM6p-112" target="RmznwL4d9NSOxr5QhM6p-32" edge="1">
          <mxGeometry width="50" height="50" relative="1" as="geometry">
            <mxPoint x="540" y="480" as="sourcePoint" />
            <mxPoint x="120" y="660" as="targetPoint" />
          </mxGeometry>
        </mxCell>
        <mxCell id="RmznwL4d9NSOxr5QhM6p-120" value="" style="endArrow=none;html=1;rounded=0;exitX=1;exitY=1;exitDx=0;exitDy=0;entryX=0;entryY=0.25;entryDx=0;entryDy=0;" parent="1" source="RmznwL4d9NSOxr5QhM6p-115" target="RmznwL4d9NSOxr5QhM6p-112" edge="1">
          <mxGeometry width="50" height="50" relative="1" as="geometry">
            <mxPoint x="440" y="460" as="sourcePoint" />
            <mxPoint x="490" y="410" as="targetPoint" />
          </mxGeometry>
        </mxCell>
        <mxCell id="RmznwL4d9NSOxr5QhM6p-121" value="" style="endArrow=none;html=1;rounded=0;exitX=0.25;exitY=0;exitDx=0;exitDy=0;entryX=0.5;entryY=1;entryDx=0;entryDy=0;" parent="1" source="RmznwL4d9NSOxr5QhM6p-112" target="RmznwL4d9NSOxr5QhM6p-117" edge="1">
          <mxGeometry width="50" height="50" relative="1" as="geometry">
            <mxPoint x="459" y="470" as="sourcePoint" />
            <mxPoint x="509" y="420" as="targetPoint" />
          </mxGeometry>
        </mxCell>
        <mxCell id="RmznwL4d9NSOxr5QhM6p-122" value="" style="endArrow=none;html=1;rounded=0;entryX=0;entryY=0.5;entryDx=0;entryDy=0;exitX=0.99;exitY=0.392;exitDx=0;exitDy=0;exitPerimeter=0;" parent="1" source="RmznwL4d9NSOxr5QhM6p-114" target="RmznwL4d9NSOxr5QhM6p-112" edge="1">
          <mxGeometry width="50" height="50" relative="1" as="geometry">
            <mxPoint x="420" y="470" as="sourcePoint" />
            <mxPoint x="470" y="420" as="targetPoint" />
          </mxGeometry>
        </mxCell>
        <mxCell id="RmznwL4d9NSOxr5QhM6p-124" value="Тариф" style="rounded=0;whiteSpace=wrap;html=1;" parent="1" vertex="1">
          <mxGeometry x="250" y="415" width="120" height="60" as="geometry" />
        </mxCell>
        <mxCell id="RmznwL4d9NSOxr5QhM6p-127" value="Наименование" style="ellipse;whiteSpace=wrap;html=1;" parent="1" vertex="1">
          <mxGeometry x="270" y="530" width="90" height="50" as="geometry" />
        </mxCell>
        <mxCell id="RmznwL4d9NSOxr5QhM6p-128" value="&lt;u&gt;Код тарифа&lt;br&gt;&lt;/u&gt;" style="ellipse;whiteSpace=wrap;html=1;" parent="1" vertex="1">
          <mxGeometry x="140" y="420" width="90" height="50" as="geometry" />
        </mxCell>
        <mxCell id="RmznwL4d9NSOxr5QhM6p-129" value="" style="endArrow=none;html=1;rounded=0;entryX=0;entryY=0.5;entryDx=0;entryDy=0;exitX=1;exitY=0.5;exitDx=0;exitDy=0;" parent="1" source="RmznwL4d9NSOxr5QhM6p-128" target="RmznwL4d9NSOxr5QhM6p-124" edge="1">
          <mxGeometry width="50" height="50" relative="1" as="geometry">
            <mxPoint x="240" y="430" as="sourcePoint" />
            <mxPoint x="290" y="380" as="targetPoint" />
          </mxGeometry>
        </mxCell>
        <mxCell id="RmznwL4d9NSOxr5QhM6p-130" value="" style="endArrow=none;html=1;rounded=0;exitX=0.75;exitY=1;exitDx=0;exitDy=0;" parent="1" source="RmznwL4d9NSOxr5QhM6p-124" target="RmznwL4d9NSOxr5QhM6p-127" edge="1">
          <mxGeometry width="50" height="50" relative="1" as="geometry">
            <mxPoint x="390" y="440" as="sourcePoint" />
            <mxPoint x="440" y="390" as="targetPoint" />
          </mxGeometry>
        </mxCell>
        <mxCell id="RmznwL4d9NSOxr5QhM6p-131" value="&lt;u&gt;Код сотрудника&lt;/u&gt;" style="ellipse;whiteSpace=wrap;html=1;" parent="1" vertex="1">
          <mxGeometry x="805" y="135" width="90" height="40" as="geometry" />
        </mxCell>
        <mxCell id="RmznwL4d9NSOxr5QhM6p-132" value="" style="endArrow=none;html=1;rounded=0;entryX=0.603;entryY=1;entryDx=0;entryDy=0;exitX=0.25;exitY=0;exitDx=0;exitDy=0;entryPerimeter=0;" parent="1" source="RmznwL4d9NSOxr5QhM6p-2" target="RmznwL4d9NSOxr5QhM6p-131" edge="1">
          <mxGeometry width="50" height="50" relative="1" as="geometry">
            <mxPoint x="710" y="220" as="sourcePoint" />
            <mxPoint x="760" y="170" as="targetPoint" />
          </mxGeometry>
        </mxCell>
        <mxCell id="RmznwL4d9NSOxr5QhM6p-135" value="Код цены" style="ellipse;whiteSpace=wrap;html=1;" parent="1" vertex="1">
          <mxGeometry x="360" y="355" width="90" height="50" as="geometry" />
        </mxCell>
        <mxCell id="RmznwL4d9NSOxr5QhM6p-137" value="" style="endArrow=none;html=1;rounded=0;entryX=0;entryY=1;entryDx=0;entryDy=0;exitX=0.924;exitY=0.002;exitDx=0;exitDy=0;exitPerimeter=0;" parent="1" source="RmznwL4d9NSOxr5QhM6p-124" target="RmznwL4d9NSOxr5QhM6p-135" edge="1">
          <mxGeometry width="50" height="50" relative="1" as="geometry">
            <mxPoint x="390" y="430" as="sourcePoint" />
            <mxPoint x="440" y="380" as="targetPoint" />
          </mxGeometry>
        </mxCell>
        <mxCell id="RmznwL4d9NSOxr5QhM6p-138" value="Должность" style="rounded=0;whiteSpace=wrap;html=1;" parent="1" vertex="1">
          <mxGeometry x="1160" y="200" width="120" height="60" as="geometry" />
        </mxCell>
        <mxCell id="RmznwL4d9NSOxr5QhM6p-140" value="&lt;u&gt;Код должности&lt;br&gt;&lt;/u&gt;" style="ellipse;whiteSpace=wrap;html=1;" parent="1" vertex="1">
          <mxGeometry x="1170" y="105" width="90" height="50" as="geometry" />
        </mxCell>
        <mxCell id="RmznwL4d9NSOxr5QhM6p-141" value="Наименование" style="ellipse;whiteSpace=wrap;html=1;" parent="1" vertex="1">
          <mxGeometry x="1320" y="200" width="90" height="50" as="geometry" />
        </mxCell>
        <mxCell id="RmznwL4d9NSOxr5QhM6p-143" value="" style="endArrow=none;html=1;rounded=0;entryX=0;entryY=0.5;entryDx=0;entryDy=0;exitX=1.011;exitY=0.414;exitDx=0;exitDy=0;exitPerimeter=0;" parent="1" source="RmznwL4d9NSOxr5QhM6p-138" target="RmznwL4d9NSOxr5QhM6p-141" edge="1">
          <mxGeometry width="50" height="50" relative="1" as="geometry">
            <mxPoint x="1270" y="250" as="sourcePoint" />
            <mxPoint x="1320" y="200" as="targetPoint" />
          </mxGeometry>
        </mxCell>
        <mxCell id="RmznwL4d9NSOxr5QhM6p-144" value="" style="endArrow=none;html=1;rounded=0;exitX=0.5;exitY=0;exitDx=0;exitDy=0;entryX=0.5;entryY=1;entryDx=0;entryDy=0;" parent="1" source="RmznwL4d9NSOxr5QhM6p-138" target="RmznwL4d9NSOxr5QhM6p-140" edge="1">
          <mxGeometry width="50" height="50" relative="1" as="geometry">
            <mxPoint x="1160" y="210" as="sourcePoint" />
            <mxPoint x="1210" y="160" as="targetPoint" />
          </mxGeometry>
        </mxCell>
        <mxCell id="Nvd_IEoB-1AbVl6Ycs7t-1" value="&lt;div&gt;м&lt;/div&gt;" style="text;html=1;align=center;verticalAlign=middle;resizable=0;points=[];autosize=1;strokeColor=none;fillColor=none;" parent="1" vertex="1">
          <mxGeometry x="-90" y="305" width="30" height="30" as="geometry" />
        </mxCell>
        <mxCell id="Nvd_IEoB-1AbVl6Ycs7t-9" value="м" style="text;html=1;align=center;verticalAlign=middle;resizable=0;points=[];autosize=1;strokeColor=none;fillColor=none;" parent="1" vertex="1">
          <mxGeometry x="310" y="385" width="30" height="30" as="geometry" />
        </mxCell>
        <mxCell id="Nvd_IEoB-1AbVl6Ycs7t-12" value="м" style="text;html=1;align=center;verticalAlign=middle;resizable=0;points=[];autosize=1;strokeColor=none;fillColor=none;" parent="1" vertex="1">
          <mxGeometry x="680" y="195" width="30" height="30" as="geometry" />
        </mxCell>
        <mxCell id="Nvd_IEoB-1AbVl6Ycs7t-16" value="&lt;div&gt;м&lt;/div&gt;&lt;div&gt;&lt;br&gt;&lt;/div&gt;" style="text;html=1;align=center;verticalAlign=middle;resizable=0;points=[];autosize=1;strokeColor=none;fillColor=none;" parent="1" vertex="1">
          <mxGeometry x="970" y="200" width="30" height="40" as="geometry" />
        </mxCell>
        <mxCell id="Nvd_IEoB-1AbVl6Ycs7t-18" value="" style="endArrow=none;html=1;rounded=0;exitX=1;exitY=0.5;exitDx=0;exitDy=0;" parent="1" source="RmznwL4d9NSOxr5QhM6p-2" edge="1">
          <mxGeometry width="50" height="50" relative="1" as="geometry">
            <mxPoint x="930" y="230" as="sourcePoint" />
            <mxPoint x="1160" y="230" as="targetPoint" />
          </mxGeometry>
        </mxCell>
        <mxCell id="Nvd_IEoB-1AbVl6Ycs7t-17" value="1" style="text;html=1;align=center;verticalAlign=middle;resizable=0;points=[];autosize=1;strokeColor=none;fillColor=none;" parent="1" vertex="1">
          <mxGeometry x="1130" y="195" width="30" height="30" as="geometry" />
        </mxCell>
        <mxCell id="Nvd_IEoB-1AbVl6Ycs7t-19" value="Время посадки" style="ellipse;whiteSpace=wrap;html=1;" parent="1" vertex="1">
          <mxGeometry x="370" y="175" width="90" height="50" as="geometry" />
        </mxCell>
        <mxCell id="Nvd_IEoB-1AbVl6Ycs7t-20" value="" style="endArrow=none;html=1;rounded=0;entryX=-0.013;entryY=0.648;entryDx=0;entryDy=0;entryPerimeter=0;exitX=1;exitY=0;exitDx=0;exitDy=0;" parent="1" source="RmznwL4d9NSOxr5QhM6p-9" target="Nvd_IEoB-1AbVl6Ycs7t-19" edge="1">
          <mxGeometry width="50" height="50" relative="1" as="geometry">
            <mxPoint x="300" y="245" as="sourcePoint" />
            <mxPoint x="350" y="195" as="targetPoint" />
          </mxGeometry>
        </mxCell>
        <mxCell id="Nvd_IEoB-1AbVl6Ycs7t-21" value="Время высадки" style="ellipse;whiteSpace=wrap;html=1;" parent="1" vertex="1">
          <mxGeometry x="370" y="235" width="90" height="50" as="geometry" />
        </mxCell>
        <mxCell id="Nvd_IEoB-1AbVl6Ycs7t-22" value="" style="endArrow=none;html=1;rounded=0;entryX=0.019;entryY=0.367;entryDx=0;entryDy=0;entryPerimeter=0;exitX=0.881;exitY=0.65;exitDx=0;exitDy=0;exitPerimeter=0;" parent="1" source="RmznwL4d9NSOxr5QhM6p-9" target="Nvd_IEoB-1AbVl6Ycs7t-21" edge="1">
          <mxGeometry width="50" height="50" relative="1" as="geometry">
            <mxPoint x="330" y="220" as="sourcePoint" />
            <mxPoint x="370" y="180" as="targetPoint" />
          </mxGeometry>
        </mxCell>
        <mxCell id="Nvd_IEoB-1AbVl6Ycs7t-24" value="" style="endArrow=none;html=1;rounded=0;exitX=0.5;exitY=0;exitDx=0;exitDy=0;entryX=0.573;entryY=0.033;entryDx=0;entryDy=0;entryPerimeter=0;" parent="1" source="RmznwL4d9NSOxr5QhM6p-9" target="RmznwL4d9NSOxr5QhM6p-2" edge="1">
          <mxGeometry width="50" height="50" relative="1" as="geometry">
            <mxPoint x="260" y="180" as="sourcePoint" />
            <mxPoint x="880" y="60" as="targetPoint" />
            <Array as="points">
              <mxPoint x="270" y="60" />
              <mxPoint x="909" y="60" />
            </Array>
          </mxGeometry>
        </mxCell>
        <mxCell id="Nvd_IEoB-1AbVl6Ycs7t-27" value="Код сотрудник" style="ellipse;whiteSpace=wrap;html=1;" parent="1" vertex="1">
          <mxGeometry x="890" y="535" width="100" height="60" as="geometry" />
        </mxCell>
        <mxCell id="Nvd_IEoB-1AbVl6Ycs7t-28" value="" style="endArrow=none;html=1;rounded=0;exitX=1;exitY=0.5;exitDx=0;exitDy=0;entryX=0.044;entryY=0.674;entryDx=0;entryDy=0;entryPerimeter=0;" parent="1" source="RmznwL4d9NSOxr5QhM6p-1" target="Nvd_IEoB-1AbVl6Ycs7t-27" edge="1">
          <mxGeometry width="50" height="50" relative="1" as="geometry">
            <mxPoint x="670" y="555" as="sourcePoint" />
            <mxPoint x="760" y="552" as="targetPoint" />
          </mxGeometry>
        </mxCell>
        <mxCell id="Nvd_IEoB-1AbVl6Ycs7t-29" value="&lt;u&gt;Код графика&lt;/u&gt;" style="ellipse;whiteSpace=wrap;html=1;" parent="1" vertex="1">
          <mxGeometry x="470" y="160" width="90" height="40" as="geometry" />
        </mxCell>
        <mxCell id="Nvd_IEoB-1AbVl6Ycs7t-30" value="День недели" style="ellipse;whiteSpace=wrap;html=1;" parent="1" vertex="1">
          <mxGeometry x="670" y="155" width="90" height="40" as="geometry" />
        </mxCell>
        <mxCell id="Nvd_IEoB-1AbVl6Ycs7t-31" value="Время конца работы" style="ellipse;whiteSpace=wrap;html=1;" parent="1" vertex="1">
          <mxGeometry x="510" y="280" width="90" height="40" as="geometry" />
        </mxCell>
        <mxCell id="Nvd_IEoB-1AbVl6Ycs7t-32" value="Время начала работы" style="ellipse;whiteSpace=wrap;html=1;" parent="1" vertex="1">
          <mxGeometry x="640" y="285" width="90" height="40" as="geometry" />
        </mxCell>
        <mxCell id="Nvd_IEoB-1AbVl6Ycs7t-33" value="" style="endArrow=none;html=1;rounded=0;entryX=1;entryY=1;entryDx=0;entryDy=0;exitX=-0.005;exitY=0.11;exitDx=0;exitDy=0;exitPerimeter=0;" parent="1" source="RmznwL4d9NSOxr5QhM6p-22" target="Nvd_IEoB-1AbVl6Ycs7t-29" edge="1">
          <mxGeometry width="50" height="50" relative="1" as="geometry">
            <mxPoint x="550" y="420" as="sourcePoint" />
            <mxPoint x="600" y="370" as="targetPoint" />
          </mxGeometry>
        </mxCell>
        <mxCell id="Nvd_IEoB-1AbVl6Ycs7t-34" value="" style="endArrow=none;html=1;rounded=0;entryX=0.112;entryY=0.83;entryDx=0;entryDy=0;entryPerimeter=0;exitX=0.75;exitY=0;exitDx=0;exitDy=0;" parent="1" source="RmznwL4d9NSOxr5QhM6p-22" target="Nvd_IEoB-1AbVl6Ycs7t-30" edge="1">
          <mxGeometry width="50" height="50" relative="1" as="geometry">
            <mxPoint x="550" y="420" as="sourcePoint" />
            <mxPoint x="600" y="370" as="targetPoint" />
          </mxGeometry>
        </mxCell>
        <mxCell id="Nvd_IEoB-1AbVl6Ycs7t-35" value="" style="endArrow=none;html=1;rounded=0;entryX=0.829;entryY=0.991;entryDx=0;entryDy=0;entryPerimeter=0;exitX=0.374;exitY=-0.01;exitDx=0;exitDy=0;exitPerimeter=0;" parent="1" source="Nvd_IEoB-1AbVl6Ycs7t-32" target="RmznwL4d9NSOxr5QhM6p-22" edge="1">
          <mxGeometry width="50" height="50" relative="1" as="geometry">
            <mxPoint x="550" y="420" as="sourcePoint" />
            <mxPoint x="600" y="370" as="targetPoint" />
          </mxGeometry>
        </mxCell>
        <mxCell id="Nvd_IEoB-1AbVl6Ycs7t-36" value="" style="endArrow=none;html=1;rounded=0;entryX=0.128;entryY=0.993;entryDx=0;entryDy=0;entryPerimeter=0;exitX=0.625;exitY=0.012;exitDx=0;exitDy=0;exitPerimeter=0;" parent="1" source="Nvd_IEoB-1AbVl6Ycs7t-31" target="RmznwL4d9NSOxr5QhM6p-22" edge="1">
          <mxGeometry width="50" height="50" relative="1" as="geometry">
            <mxPoint x="550" y="420" as="sourcePoint" />
            <mxPoint x="600" y="370" as="targetPoint" />
          </mxGeometry>
        </mxCell>
        <mxCell id="Nvd_IEoB-1AbVl6Ycs7t-38" value="" style="endArrow=none;html=1;rounded=0;entryX=0.5;entryY=1;entryDx=0;entryDy=0;exitX=0.5;exitY=0;exitDx=0;exitDy=0;edgeStyle=orthogonalEdgeStyle;" parent="1" source="RmznwL4d9NSOxr5QhM6p-112" target="RmznwL4d9NSOxr5QhM6p-124" edge="1">
          <mxGeometry width="50" height="50" relative="1" as="geometry">
            <mxPoint x="260" y="540" as="sourcePoint" />
            <mxPoint x="310" y="490" as="targetPoint" />
          </mxGeometry>
        </mxCell>
        <mxCell id="Nvd_IEoB-1AbVl6Ycs7t-39" value="" style="endArrow=none;html=1;rounded=0;entryX=0;entryY=1;entryDx=0;entryDy=0;edgeStyle=orthogonalEdgeStyle;" parent="1" target="RmznwL4d9NSOxr5QhM6p-9" edge="1">
          <mxGeometry width="50" height="50" relative="1" as="geometry">
            <mxPoint x="-20" y="350" as="sourcePoint" />
            <mxPoint x="70" y="320" as="targetPoint" />
            <Array as="points">
              <mxPoint x="40" y="350" />
              <mxPoint x="40" y="290" />
              <mxPoint x="190" y="290" />
              <mxPoint x="190" y="250" />
            </Array>
          </mxGeometry>
        </mxCell>
        <mxCell id="Nvd_IEoB-1AbVl6Ycs7t-40" value="Период времени" style="ellipse;whiteSpace=wrap;html=1;" parent="1" vertex="1">
          <mxGeometry x="370" y="455" width="90" height="50" as="geometry" />
        </mxCell>
        <mxCell id="Nvd_IEoB-1AbVl6Ycs7t-41" value="" style="endArrow=none;html=1;rounded=0;exitX=0.999;exitY=0.631;exitDx=0;exitDy=0;entryX=0.171;entryY=0.099;entryDx=0;entryDy=0;exitPerimeter=0;entryPerimeter=0;" parent="1" source="RmznwL4d9NSOxr5QhM6p-124" target="Nvd_IEoB-1AbVl6Ycs7t-40" edge="1">
          <mxGeometry width="50" height="50" relative="1" as="geometry">
            <mxPoint x="480" y="410" as="sourcePoint" />
            <mxPoint x="530" y="360" as="targetPoint" />
          </mxGeometry>
        </mxCell>
        <mxCell id="Nvd_IEoB-1AbVl6Ycs7t-43" value="" style="endArrow=none;html=1;rounded=0;entryX=0;entryY=0.5;entryDx=0;entryDy=0;exitX=1;exitY=0.5;exitDx=0;exitDy=0;" parent="1" source="RmznwL4d9NSOxr5QhM6p-112" target="RmznwL4d9NSOxr5QhM6p-1" edge="1">
          <mxGeometry width="50" height="50" relative="1" as="geometry">
            <mxPoint x="250" y="585" as="sourcePoint" />
            <mxPoint x="300" y="535" as="targetPoint" />
          </mxGeometry>
        </mxCell>
        <mxCell id="Nvd_IEoB-1AbVl6Ycs7t-46" value="" style="endArrow=none;html=1;rounded=0;exitX=0.5;exitY=0;exitDx=0;exitDy=0;edgeStyle=orthogonalEdgeStyle;" parent="1" source="RmznwL4d9NSOxr5QhM6p-99" edge="1">
          <mxGeometry width="50" height="50" relative="1" as="geometry">
            <mxPoint x="170" y="320" as="sourcePoint" />
            <mxPoint x="-70" y="260" as="targetPoint" />
          </mxGeometry>
        </mxCell>
        <mxCell id="Nvd_IEoB-1AbVl6Ycs7t-50" value="м" style="text;html=1;align=center;verticalAlign=middle;resizable=0;points=[];autosize=1;strokeColor=none;fillColor=none;" parent="1" vertex="1">
          <mxGeometry x="-20" y="345" width="30" height="30" as="geometry" />
        </mxCell>
        <mxCell id="Nvd_IEoB-1AbVl6Ycs7t-53" value="м" style="text;html=1;align=center;verticalAlign=middle;resizable=0;points=[];autosize=1;strokeColor=none;fillColor=none;" parent="1" vertex="1">
          <mxGeometry x="170" y="520" width="30" height="30" as="geometry" />
        </mxCell>
        <mxCell id="Nvd_IEoB-1AbVl6Ycs7t-54" value="1" style="text;html=1;align=center;verticalAlign=middle;resizable=0;points=[];autosize=1;strokeColor=none;fillColor=none;" parent="1" vertex="1">
          <mxGeometry x="280" y="470" width="30" height="30" as="geometry" />
        </mxCell>
        <mxCell id="Nvd_IEoB-1AbVl6Ycs7t-55" value="" style="endArrow=none;html=1;rounded=0;exitX=0.5;exitY=0;exitDx=0;exitDy=0;edgeStyle=orthogonalEdgeStyle;entryX=0.5;entryY=1;entryDx=0;entryDy=0;" parent="1" source="RmznwL4d9NSOxr5QhM6p-124" target="RmznwL4d9NSOxr5QhM6p-9" edge="1">
          <mxGeometry width="50" height="50" relative="1" as="geometry">
            <mxPoint x="115" y="390" as="sourcePoint" />
            <mxPoint x="269" y="270" as="targetPoint" />
            <Array as="points">
              <mxPoint x="310" y="360" />
              <mxPoint x="270" y="360" />
            </Array>
          </mxGeometry>
        </mxCell>
        <mxCell id="Nvd_IEoB-1AbVl6Ycs7t-58" value="" style="endArrow=none;html=1;rounded=0;entryX=0.5;entryY=1;entryDx=0;entryDy=0;exitX=0.552;exitY=1.041;exitDx=0;exitDy=0;edgeStyle=orthogonalEdgeStyle;exitPerimeter=0;" parent="1" source="Nvd_IEoB-1AbVl6Ycs7t-74" target="RmznwL4d9NSOxr5QhM6p-2" edge="1">
          <mxGeometry width="50" height="50" relative="1" as="geometry">
            <mxPoint x="700" y="440" as="sourcePoint" />
            <mxPoint x="750" y="390" as="targetPoint" />
            <Array as="points">
              <mxPoint x="750" y="566" />
              <mxPoint x="750" y="400" />
              <mxPoint x="900" y="400" />
            </Array>
          </mxGeometry>
        </mxCell>
        <mxCell id="Nvd_IEoB-1AbVl6Ycs7t-59" value="м" style="text;html=1;align=center;verticalAlign=middle;resizable=0;points=[];autosize=1;strokeColor=none;fillColor=none;" parent="1" vertex="1">
          <mxGeometry x="230" y="565" width="30" height="30" as="geometry" />
        </mxCell>
        <mxCell id="Nvd_IEoB-1AbVl6Ycs7t-60" value="" style="endArrow=none;html=1;rounded=0;exitX=0.25;exitY=0;exitDx=0;exitDy=0;edgeStyle=orthogonalEdgeStyle;entryX=0.5;entryY=1;entryDx=0;entryDy=0;" parent="1" source="RmznwL4d9NSOxr5QhM6p-1" target="RmznwL4d9NSOxr5QhM6p-22" edge="1">
          <mxGeometry width="50" height="50" relative="1" as="geometry">
            <mxPoint x="380" y="550" as="sourcePoint" />
            <mxPoint x="610" y="260" as="targetPoint" />
            <Array as="points">
              <mxPoint x="710" y="565" />
              <mxPoint x="710" y="350" />
              <mxPoint x="620" y="350" />
            </Array>
          </mxGeometry>
        </mxCell>
        <mxCell id="Nvd_IEoB-1AbVl6Ycs7t-62" value="Тип оплаты" style="ellipse;whiteSpace=wrap;html=1;" parent="1" vertex="1">
          <mxGeometry x="280" y="305" width="90" height="50" as="geometry" />
        </mxCell>
        <mxCell id="Nvd_IEoB-1AbVl6Ycs7t-63" value="&lt;u&gt;Код карты&lt;/u&gt;" style="ellipse;whiteSpace=wrap;html=1;" parent="1" vertex="1">
          <mxGeometry x="-50" y="390" width="90" height="50" as="geometry" />
        </mxCell>
        <mxCell id="Nvd_IEoB-1AbVl6Ycs7t-64" value="" style="endArrow=none;html=1;rounded=0;" parent="1" target="Nvd_IEoB-1AbVl6Ycs7t-63" edge="1">
          <mxGeometry width="50" height="50" relative="1" as="geometry">
            <mxPoint x="-30" y="370" as="sourcePoint" />
            <mxPoint x="-23" y="388" as="targetPoint" />
          </mxGeometry>
        </mxCell>
        <mxCell id="Nvd_IEoB-1AbVl6Ycs7t-72" value="м" style="text;html=1;align=center;verticalAlign=middle;resizable=0;points=[];autosize=1;strokeColor=none;fillColor=none;" parent="1" vertex="1">
          <mxGeometry x="610" y="255" width="30" height="30" as="geometry" />
        </mxCell>
        <mxCell id="Nvd_IEoB-1AbVl6Ycs7t-73" value="0" style="text;html=1;align=center;verticalAlign=middle;resizable=0;points=[];autosize=1;strokeColor=none;fillColor=none;" parent="1" vertex="1">
          <mxGeometry x="885" y="260" width="30" height="30" as="geometry" />
        </mxCell>
        <mxCell id="Nvd_IEoB-1AbVl6Ycs7t-75" value="&lt;u&gt;Код автомобиля&lt;/u&gt;" style="ellipse;whiteSpace=wrap;html=1;" parent="1" vertex="1">
          <mxGeometry x="800" y="500" width="100" height="60" as="geometry" />
        </mxCell>
        <mxCell id="Nvd_IEoB-1AbVl6Ycs7t-76" value="" style="endArrow=none;html=1;rounded=0;entryX=0.282;entryY=0.956;entryDx=0;entryDy=0;entryPerimeter=0;exitX=1;exitY=0.25;exitDx=0;exitDy=0;" parent="1" source="RmznwL4d9NSOxr5QhM6p-1" target="Nvd_IEoB-1AbVl6Ycs7t-75" edge="1">
          <mxGeometry width="50" height="50" relative="1" as="geometry">
            <mxPoint x="660" y="550" as="sourcePoint" />
            <mxPoint x="770" y="550" as="targetPoint" />
          </mxGeometry>
        </mxCell>
        <mxCell id="Nvd_IEoB-1AbVl6Ycs7t-79" value="" style="endArrow=none;html=1;rounded=0;" parent="1" edge="1">
          <mxGeometry width="50" height="50" relative="1" as="geometry">
            <mxPoint x="10" y="240" as="sourcePoint" />
            <mxPoint x="10" y="220" as="targetPoint" />
          </mxGeometry>
        </mxCell>
        <mxCell id="Nvd_IEoB-1AbVl6Ycs7t-81" value="" style="endArrow=none;html=1;rounded=0;" parent="1" edge="1">
          <mxGeometry width="50" height="50" relative="1" as="geometry">
            <mxPoint x="630" y="279.61" as="sourcePoint" />
            <mxPoint x="610" y="279.61" as="targetPoint" />
            <Array as="points" />
          </mxGeometry>
        </mxCell>
        <mxCell id="Nvd_IEoB-1AbVl6Ycs7t-82" value="" style="endArrow=none;html=1;rounded=0;" parent="1" edge="1">
          <mxGeometry width="50" height="50" relative="1" as="geometry">
            <mxPoint x="690" y="240" as="sourcePoint" />
            <mxPoint x="690" y="220" as="targetPoint" />
            <Array as="points" />
          </mxGeometry>
        </mxCell>
        <mxCell id="Nvd_IEoB-1AbVl6Ycs7t-83" value="" style="endArrow=none;html=1;rounded=0;exitX=1;exitY=0.5;exitDx=0;exitDy=0;entryX=0;entryY=0.5;entryDx=0;entryDy=0;" parent="1" source="RmznwL4d9NSOxr5QhM6p-22" target="RmznwL4d9NSOxr5QhM6p-2" edge="1">
          <mxGeometry width="50" height="50" relative="1" as="geometry">
            <mxPoint x="280" y="200" as="sourcePoint" />
            <mxPoint x="889" y="212" as="targetPoint" />
            <Array as="points" />
          </mxGeometry>
        </mxCell>
        <mxCell id="Nvd_IEoB-1AbVl6Ycs7t-86" value="" style="endArrow=none;html=1;rounded=0;" parent="1" edge="1">
          <mxGeometry width="50" height="50" relative="1" as="geometry">
            <mxPoint x="160" y="560" as="sourcePoint" />
            <mxPoint x="180" y="560" as="targetPoint" />
            <Array as="points" />
          </mxGeometry>
        </mxCell>
        <mxCell id="Nvd_IEoB-1AbVl6Ycs7t-88" value="" style="endArrow=none;html=1;rounded=0;" parent="1" edge="1">
          <mxGeometry width="50" height="50" relative="1" as="geometry">
            <mxPoint x="240" y="600" as="sourcePoint" />
            <mxPoint x="240" y="590" as="targetPoint" />
            <Array as="points" />
          </mxGeometry>
        </mxCell>
        <mxCell id="Nvd_IEoB-1AbVl6Ycs7t-90" value="" style="endArrow=none;html=1;rounded=0;" parent="1" edge="1">
          <mxGeometry width="50" height="50" relative="1" as="geometry">
            <mxPoint x="-60" y="320" as="sourcePoint" />
            <mxPoint x="-40" y="320" as="targetPoint" />
            <Array as="points" />
          </mxGeometry>
        </mxCell>
        <mxCell id="Nvd_IEoB-1AbVl6Ycs7t-95" value="" style="endArrow=none;html=1;rounded=0;exitX=0.331;exitY=0.05;exitDx=0;exitDy=0;exitPerimeter=0;" parent="1" source="Nvd_IEoB-1AbVl6Ycs7t-62" edge="1">
          <mxGeometry width="50" height="50" relative="1" as="geometry">
            <mxPoint x="367" y="300" as="sourcePoint" />
            <mxPoint x="290" y="260" as="targetPoint" />
          </mxGeometry>
        </mxCell>
        <mxCell id="kzqRbBWokFdx9vGnOLY--1" value="" style="endArrow=none;html=1;rounded=0;exitX=1;exitY=0.5;exitDx=0;exitDy=0;entryX=0;entryY=0.5;entryDx=0;entryDy=0;" parent="1" source="RmznwL4d9NSOxr5QhM6p-9" target="RmznwL4d9NSOxr5QhM6p-22" edge="1">
          <mxGeometry width="50" height="50" relative="1" as="geometry">
            <mxPoint x="480" y="250" as="sourcePoint" />
            <mxPoint x="530" y="200" as="targetPoint" />
          </mxGeometry>
        </mxCell>
        <mxCell id="kzqRbBWokFdx9vGnOLY--2" value="" style="endArrow=none;html=1;rounded=0;" parent="1" edge="1">
          <mxGeometry width="50" height="50" relative="1" as="geometry">
            <mxPoint x="548.8" y="240" as="sourcePoint" />
            <mxPoint x="548.8" y="220" as="targetPoint" />
          </mxGeometry>
        </mxCell>
        <mxCell id="kzqRbBWokFdx9vGnOLY--3" value="м" style="text;html=1;align=center;verticalAlign=middle;resizable=0;points=[];autosize=1;strokeColor=none;fillColor=none;" parent="1" vertex="1">
          <mxGeometry x="520" y="200" width="30" height="30" as="geometry" />
        </mxCell>
        <mxCell id="kzqRbBWokFdx9vGnOLY--4" value="Код пассажира&lt;u&gt;&lt;br&gt;&lt;/u&gt;" style="ellipse;whiteSpace=wrap;html=1;" parent="1" vertex="1">
          <mxGeometry x="-230" y="335" width="90" height="50" as="geometry" />
        </mxCell>
        <mxCell id="kzqRbBWokFdx9vGnOLY--5" value="" style="endArrow=none;html=1;rounded=0;exitX=1;exitY=0.5;exitDx=0;exitDy=0;" parent="1" source="kzqRbBWokFdx9vGnOLY--4" edge="1">
          <mxGeometry width="50" height="50" relative="1" as="geometry">
            <mxPoint x="-130" y="365" as="sourcePoint" />
            <mxPoint x="-90" y="350" as="targetPoint" />
          </mxGeometry>
        </mxCell>
        <mxCell id="kzqRbBWokFdx9vGnOLY--7" value="" style="endArrow=none;html=1;rounded=0;entryX=0;entryY=0.5;entryDx=0;entryDy=0;exitX=1;exitY=0.5;exitDx=0;exitDy=0;" parent="1" target="RmznwL4d9NSOxr5QhM6p-9" edge="1">
          <mxGeometry width="50" height="50" relative="1" as="geometry">
            <mxPoint x="-10" y="230" as="sourcePoint" />
            <mxPoint x="190" y="230" as="targetPoint" />
          </mxGeometry>
        </mxCell>
        <mxCell id="kzqRbBWokFdx9vGnOLY--6" value="м" style="text;html=1;align=center;verticalAlign=middle;resizable=0;points=[];autosize=1;strokeColor=none;fillColor=none;" parent="1" vertex="1">
          <mxGeometry x="10" y="205" width="30" height="30" as="geometry" />
        </mxCell>
        <mxCell id="kzqRbBWokFdx9vGnOLY--14" value="" style="endArrow=none;html=1;rounded=0;" parent="1" edge="1">
          <mxGeometry width="50" height="50" relative="1" as="geometry">
            <mxPoint x="900" y="190" as="sourcePoint" />
            <mxPoint x="920" y="190" as="targetPoint" />
          </mxGeometry>
        </mxCell>
        <mxCell id="kzqRbBWokFdx9vGnOLY--15" value="" style="endArrow=none;html=1;rounded=0;" parent="1" edge="1">
          <mxGeometry width="50" height="50" relative="1" as="geometry">
            <mxPoint x="-80" y="270" as="sourcePoint" />
            <mxPoint x="-60" y="270" as="targetPoint" />
          </mxGeometry>
        </mxCell>
        <mxCell id="kzqRbBWokFdx9vGnOLY--16" value="1" style="text;html=1;align=center;verticalAlign=middle;resizable=0;points=[];autosize=1;strokeColor=none;fillColor=none;" parent="1" vertex="1">
          <mxGeometry x="-65" y="255" width="30" height="30" as="geometry" />
        </mxCell>
        <mxCell id="kzqRbBWokFdx9vGnOLY--17" value="" style="endArrow=none;html=1;rounded=0;" parent="1" edge="1">
          <mxGeometry width="50" height="50" relative="1" as="geometry">
            <mxPoint x="-50" y="330" as="sourcePoint" />
            <mxPoint x="-30" y="330" as="targetPoint" />
            <Array as="points" />
          </mxGeometry>
        </mxCell>
        <mxCell id="kzqRbBWokFdx9vGnOLY--19" value="" style="endArrow=none;html=1;rounded=0;" parent="1" edge="1">
          <mxGeometry width="50" height="50" relative="1" as="geometry">
            <mxPoint x="-10" y="340" as="sourcePoint" />
            <mxPoint x="-10" y="360" as="targetPoint" />
          </mxGeometry>
        </mxCell>
        <mxCell id="kzqRbBWokFdx9vGnOLY--21" value="Клиент" style="rounded=0;whiteSpace=wrap;html=1;" parent="1" vertex="1">
          <mxGeometry x="-120" y="200" width="120" height="60" as="geometry" />
        </mxCell>
        <mxCell id="kzqRbBWokFdx9vGnOLY--22" value="&lt;div&gt;м&lt;/div&gt;&lt;div&gt;&lt;br&gt;&lt;/div&gt;" style="text;html=1;align=center;verticalAlign=middle;resizable=0;points=[];autosize=1;strokeColor=none;fillColor=none;" parent="1" vertex="1">
          <mxGeometry x="870" y="175" width="30" height="40" as="geometry" />
        </mxCell>
        <mxCell id="kzqRbBWokFdx9vGnOLY--23" value="" style="endArrow=none;html=1;rounded=0;" parent="1" edge="1">
          <mxGeometry width="50" height="50" relative="1" as="geometry">
            <mxPoint x="300" y="404.66" as="sourcePoint" />
            <mxPoint x="320" y="404.66" as="targetPoint" />
          </mxGeometry>
        </mxCell>
        <mxCell id="kzqRbBWokFdx9vGnOLY--24" value="1" style="text;html=1;align=center;verticalAlign=middle;resizable=0;points=[];autosize=1;strokeColor=none;fillColor=none;" parent="1" vertex="1">
          <mxGeometry x="680" y="535" width="30" height="30" as="geometry" />
        </mxCell>
        <mxCell id="kzqRbBWokFdx9vGnOLY--27" value="" style="endArrow=none;html=1;rounded=0;entryX=0.5;entryY=1;entryDx=0;entryDy=0;exitX=0.75;exitY=0;exitDx=0;exitDy=0;edgeStyle=orthogonalEdgeStyle;" parent="1" source="RmznwL4d9NSOxr5QhM6p-1" target="Nvd_IEoB-1AbVl6Ycs7t-74" edge="1">
          <mxGeometry width="50" height="50" relative="1" as="geometry">
            <mxPoint x="640" y="565" as="sourcePoint" />
            <mxPoint x="870" y="260" as="targetPoint" />
            <Array as="points">
              <mxPoint x="650" y="565" />
            </Array>
          </mxGeometry>
        </mxCell>
        <mxCell id="kzqRbBWokFdx9vGnOLY--28" value="" style="endArrow=none;html=1;rounded=0;" parent="1" edge="1">
          <mxGeometry width="50" height="50" relative="1" as="geometry">
            <mxPoint x="700" y="560" as="sourcePoint" />
            <mxPoint x="720" y="560" as="targetPoint" />
            <Array as="points" />
          </mxGeometry>
        </mxCell>
        <mxCell id="kzqRbBWokFdx9vGnOLY--29" value="1" style="text;html=1;align=center;verticalAlign=middle;resizable=0;points=[];autosize=1;strokeColor=none;fillColor=none;" parent="1" vertex="1">
          <mxGeometry x="870" y="260" width="30" height="30" as="geometry" />
        </mxCell>
        <mxCell id="kzqRbBWokFdx9vGnOLY--30" value="м" style="text;html=1;align=center;verticalAlign=middle;resizable=0;points=[];autosize=1;strokeColor=none;fillColor=none;" parent="1" vertex="1">
          <mxGeometry x="720" y="540" width="30" height="30" as="geometry" />
        </mxCell>
        <mxCell id="kzqRbBWokFdx9vGnOLY--31" value="" style="endArrow=none;html=1;rounded=0;" parent="1" edge="1">
          <mxGeometry width="50" height="50" relative="1" as="geometry">
            <mxPoint x="970" y="220" as="sourcePoint" />
            <mxPoint x="970" y="240" as="targetPoint" />
          </mxGeometry>
        </mxCell>
        <mxCell id="kzqRbBWokFdx9vGnOLY--32" value="" style="endArrow=none;html=1;rounded=0;" parent="1" edge="1">
          <mxGeometry width="50" height="50" relative="1" as="geometry">
            <mxPoint x="1150" y="240" as="sourcePoint" />
            <mxPoint x="1150" y="220" as="targetPoint" />
          </mxGeometry>
        </mxCell>
        <mxCell id="kzqRbBWokFdx9vGnOLY--33" value="" style="endArrow=none;html=1;rounded=0;" parent="1" edge="1">
          <mxGeometry width="50" height="50" relative="1" as="geometry">
            <mxPoint x="540" y="600" as="sourcePoint" />
            <mxPoint x="540" y="590" as="targetPoint" />
          </mxGeometry>
        </mxCell>
        <mxCell id="kzqRbBWokFdx9vGnOLY--34" value="" style="endArrow=none;html=1;rounded=0;" parent="1" edge="1">
          <mxGeometry width="50" height="50" relative="1" as="geometry">
            <mxPoint x="300" y="484.83" as="sourcePoint" />
            <mxPoint x="320" y="484.83" as="targetPoint" />
          </mxGeometry>
        </mxCell>
        <mxCell id="kzqRbBWokFdx9vGnOLY--36" value="Код автомобиля" style="ellipse;whiteSpace=wrap;html=1;" parent="1" vertex="1">
          <mxGeometry x="575" y="125" width="90" height="40" as="geometry" />
        </mxCell>
        <mxCell id="kzqRbBWokFdx9vGnOLY--38" value="" style="endArrow=none;html=1;rounded=0;exitX=0.5;exitY=0;exitDx=0;exitDy=0;entryX=0.557;entryY=0.991;entryDx=0;entryDy=0;entryPerimeter=0;" parent="1" source="RmznwL4d9NSOxr5QhM6p-22" target="kzqRbBWokFdx9vGnOLY--36" edge="1">
          <mxGeometry width="50" height="50" relative="1" as="geometry">
            <mxPoint x="560" y="215" as="sourcePoint" />
            <mxPoint x="610" y="165" as="targetPoint" />
          </mxGeometry>
        </mxCell>
        <mxCell id="kzqRbBWokFdx9vGnOLY--39" value="Код сотрудника" style="ellipse;whiteSpace=wrap;html=1;" parent="1" vertex="1">
          <mxGeometry x="690" y="240" width="90" height="40" as="geometry" />
        </mxCell>
        <mxCell id="kzqRbBWokFdx9vGnOLY--40" value="" style="endArrow=none;html=1;rounded=0;exitX=1;exitY=0.75;exitDx=0;exitDy=0;entryX=0.024;entryY=0.343;entryDx=0;entryDy=0;entryPerimeter=0;" parent="1" source="RmznwL4d9NSOxr5QhM6p-22" target="kzqRbBWokFdx9vGnOLY--39" edge="1">
          <mxGeometry width="50" height="50" relative="1" as="geometry">
            <mxPoint x="670" y="290" as="sourcePoint" />
            <mxPoint x="720" y="240" as="targetPoint" />
          </mxGeometry>
        </mxCell>
        <mxCell id="kzqRbBWokFdx9vGnOLY--41" value="Код должности" style="ellipse;whiteSpace=wrap;html=1;" parent="1" vertex="1">
          <mxGeometry x="780" y="270" width="90" height="50" as="geometry" />
        </mxCell>
        <mxCell id="kzqRbBWokFdx9vGnOLY--42" value="" style="endArrow=none;html=1;rounded=0;entryX=0.25;entryY=1;entryDx=0;entryDy=0;exitX=0.776;exitY=0.095;exitDx=0;exitDy=0;exitPerimeter=0;" parent="1" source="kzqRbBWokFdx9vGnOLY--41" target="RmznwL4d9NSOxr5QhM6p-2" edge="1">
          <mxGeometry width="50" height="50" relative="1" as="geometry">
            <mxPoint x="860" y="307" as="sourcePoint" />
            <mxPoint x="817" y="260" as="targetPoint" />
          </mxGeometry>
        </mxCell>
        <mxCell id="kzqRbBWokFdx9vGnOLY--48" value="Код тарифа" style="ellipse;whiteSpace=wrap;html=1;" parent="1" vertex="1">
          <mxGeometry x="100" y="300" width="90" height="50" as="geometry" />
        </mxCell>
        <mxCell id="kzqRbBWokFdx9vGnOLY--49" value="Код сотрудника" style="ellipse;whiteSpace=wrap;html=1;" parent="1" vertex="1">
          <mxGeometry x="170" y="80" width="90" height="50" as="geometry" />
        </mxCell>
        <mxCell id="kzqRbBWokFdx9vGnOLY--50" value="Код графика" style="ellipse;whiteSpace=wrap;html=1;" parent="1" vertex="1">
          <mxGeometry x="370" y="105" width="90" height="50" as="geometry" />
        </mxCell>
        <mxCell id="kzqRbBWokFdx9vGnOLY--51" value="" style="endArrow=none;html=1;rounded=0;entryX=0.667;entryY=1.02;entryDx=0;entryDy=0;entryPerimeter=0;exitX=0.429;exitY=0.084;exitDx=0;exitDy=0;exitPerimeter=0;" parent="1" source="RmznwL4d9NSOxr5QhM6p-9" target="kzqRbBWokFdx9vGnOLY--49" edge="1">
          <mxGeometry width="50" height="50" relative="1" as="geometry">
            <mxPoint x="200" y="210" as="sourcePoint" />
            <mxPoint x="250" y="160" as="targetPoint" />
          </mxGeometry>
        </mxCell>
        <mxCell id="kzqRbBWokFdx9vGnOLY--52" value="" style="endArrow=none;html=1;rounded=0;exitX=0.688;exitY=0.164;exitDx=0;exitDy=0;exitPerimeter=0;entryX=0.071;entryY=0.749;entryDx=0;entryDy=0;entryPerimeter=0;" parent="1" source="RmznwL4d9NSOxr5QhM6p-9" target="kzqRbBWokFdx9vGnOLY--50" edge="1">
          <mxGeometry width="50" height="50" relative="1" as="geometry">
            <mxPoint x="320" y="190" as="sourcePoint" />
            <mxPoint x="370" y="140" as="targetPoint" />
          </mxGeometry>
        </mxCell>
        <mxCell id="kzqRbBWokFdx9vGnOLY--55" value="" style="endArrow=none;html=1;rounded=0;entryX=0.326;entryY=0.807;entryDx=0;entryDy=0;entryPerimeter=0;exitX=1;exitY=0;exitDx=0;exitDy=0;" parent="1" source="kzqRbBWokFdx9vGnOLY--48" target="RmznwL4d9NSOxr5QhM6p-9" edge="1">
          <mxGeometry width="50" height="50" relative="1" as="geometry">
            <mxPoint x="190" y="310" as="sourcePoint" />
            <mxPoint x="240" y="260" as="targetPoint" />
          </mxGeometry>
        </mxCell>
        <mxCell id="kzqRbBWokFdx9vGnOLY--56" value="Код автомобиля" style="ellipse;whiteSpace=wrap;html=1;" parent="1" vertex="1">
          <mxGeometry x="150" y="650" width="90" height="50" as="geometry" />
        </mxCell>
        <mxCell id="kzqRbBWokFdx9vGnOLY--57" value="" style="endArrow=none;html=1;rounded=0;exitX=0.648;exitY=1.011;exitDx=0;exitDy=0;exitPerimeter=0;entryX=0.5;entryY=0;entryDx=0;entryDy=0;" parent="1" source="RmznwL4d9NSOxr5QhM6p-112" target="kzqRbBWokFdx9vGnOLY--56" edge="1">
          <mxGeometry width="50" height="50" relative="1" as="geometry">
            <mxPoint x="270" y="650" as="sourcePoint" />
            <mxPoint x="320" y="600" as="targetPoint" />
          </mxGeometry>
        </mxCell>
        <mxCell id="G0pUR8CLIHgKDuFHwaAW-1" value="" style="endArrow=none;html=1;rounded=0;entryX=0.5;entryY=1;entryDx=0;entryDy=0;exitX=0.916;exitY=-0.007;exitDx=0;exitDy=0;edgeStyle=orthogonalEdgeStyle;exitPerimeter=0;" parent="1" source="RmznwL4d9NSOxr5QhM6p-1" target="Nvd_IEoB-1AbVl6Ycs7t-74" edge="1">
          <mxGeometry width="50" height="50" relative="1" as="geometry">
            <mxPoint x="750" y="565" as="sourcePoint" />
            <mxPoint x="870" y="260" as="targetPoint" />
            <Array as="points" />
          </mxGeometry>
        </mxCell>
        <mxCell id="Nvd_IEoB-1AbVl6Ycs7t-74" value="0" style="text;html=1;align=center;verticalAlign=middle;resizable=0;points=[];autosize=1;strokeColor=none;fillColor=none;" parent="1" vertex="1">
          <mxGeometry x="735" y="535" width="30" height="30" as="geometry" />
        </mxCell>
        <mxCell id="G0pUR8CLIHgKDuFHwaAW-2" value="" style="endArrow=none;html=1;rounded=0;" parent="1" edge="1">
          <mxGeometry width="50" height="50" relative="1" as="geometry">
            <mxPoint x="600" y="460" as="sourcePoint" />
            <mxPoint x="600" y="460" as="targetPoint" />
            <Array as="points">
              <mxPoint x="510" y="460" />
              <mxPoint x="530" y="420" />
              <mxPoint x="580" y="420" />
            </Array>
          </mxGeometry>
        </mxCell>
        <mxCell id="G0pUR8CLIHgKDuFHwaAW-3" value="Цена" style="text;html=1;align=center;verticalAlign=middle;resizable=0;points=[];autosize=1;strokeColor=none;fillColor=none;" parent="1" vertex="1">
          <mxGeometry x="530" y="425" width="50" height="30" as="geometry" />
        </mxCell>
        <mxCell id="G0pUR8CLIHgKDuFHwaAW-4" value="" style="endArrow=none;html=1;rounded=0;exitX=1.002;exitY=0.421;exitDx=0;exitDy=0;exitPerimeter=0;" parent="1" source="RmznwL4d9NSOxr5QhM6p-124" edge="1">
          <mxGeometry width="50" height="50" relative="1" as="geometry">
            <mxPoint x="414" y="427.5" as="sourcePoint" />
            <mxPoint x="520" y="440" as="targetPoint" />
          </mxGeometry>
        </mxCell>
        <mxCell id="G0pUR8CLIHgKDuFHwaAW-5" value="&lt;u&gt;Код цены&lt;/u&gt;" style="ellipse;whiteSpace=wrap;html=1;" parent="1" vertex="1">
          <mxGeometry x="474" y="360" width="90" height="50" as="geometry" />
        </mxCell>
        <mxCell id="G0pUR8CLIHgKDuFHwaAW-6" value="Код тарифа" style="ellipse;whiteSpace=wrap;html=1;" parent="1" vertex="1">
          <mxGeometry x="575" y="360" width="90" height="50" as="geometry" />
        </mxCell>
        <mxCell id="G0pUR8CLIHgKDuFHwaAW-7" value="С" style="ellipse;whiteSpace=wrap;html=1;" parent="1" vertex="1">
          <mxGeometry x="474" y="485" width="90" height="50" as="geometry" />
        </mxCell>
        <mxCell id="G0pUR8CLIHgKDuFHwaAW-8" value="По" style="ellipse;whiteSpace=wrap;html=1;" parent="1" vertex="1">
          <mxGeometry x="575" y="485" width="90" height="50" as="geometry" />
        </mxCell>
        <mxCell id="G0pUR8CLIHgKDuFHwaAW-10" value="Цена" style="ellipse;whiteSpace=wrap;html=1;" parent="1" vertex="1">
          <mxGeometry x="610" y="415" width="90" height="50" as="geometry" />
        </mxCell>
        <mxCell id="G0pUR8CLIHgKDuFHwaAW-11" value="" style="endArrow=none;html=1;rounded=0;exitX=0.549;exitY=0.003;exitDx=0;exitDy=0;exitPerimeter=0;" parent="1" source="G0pUR8CLIHgKDuFHwaAW-7" edge="1">
          <mxGeometry width="50" height="50" relative="1" as="geometry">
            <mxPoint x="470" y="450" as="sourcePoint" />
            <mxPoint x="530" y="460" as="targetPoint" />
          </mxGeometry>
        </mxCell>
        <mxCell id="G0pUR8CLIHgKDuFHwaAW-12" value="" style="endArrow=none;html=1;rounded=0;entryX=0;entryY=0;entryDx=0;entryDy=0;" parent="1" target="G0pUR8CLIHgKDuFHwaAW-8" edge="1">
          <mxGeometry width="50" height="50" relative="1" as="geometry">
            <mxPoint x="570" y="460" as="sourcePoint" />
            <mxPoint x="520" y="400" as="targetPoint" />
          </mxGeometry>
        </mxCell>
        <mxCell id="G0pUR8CLIHgKDuFHwaAW-13" value="" style="endArrow=none;html=1;rounded=0;entryX=0.005;entryY=0.46;entryDx=0;entryDy=0;entryPerimeter=0;" parent="1" target="G0pUR8CLIHgKDuFHwaAW-10" edge="1">
          <mxGeometry width="50" height="50" relative="1" as="geometry">
            <mxPoint x="590" y="440" as="sourcePoint" />
            <mxPoint x="520" y="400" as="targetPoint" />
          </mxGeometry>
        </mxCell>
        <mxCell id="G0pUR8CLIHgKDuFHwaAW-14" value="" style="endArrow=none;html=1;rounded=0;entryX=0.109;entryY=0.789;entryDx=0;entryDy=0;entryPerimeter=0;" parent="1" target="G0pUR8CLIHgKDuFHwaAW-6" edge="1">
          <mxGeometry width="50" height="50" relative="1" as="geometry">
            <mxPoint x="580" y="420" as="sourcePoint" />
            <mxPoint x="520" y="400" as="targetPoint" />
          </mxGeometry>
        </mxCell>
        <mxCell id="G0pUR8CLIHgKDuFHwaAW-15" value="" style="endArrow=none;html=1;rounded=0;entryX=0.681;entryY=0.97;entryDx=0;entryDy=0;entryPerimeter=0;" parent="1" target="G0pUR8CLIHgKDuFHwaAW-5" edge="1">
          <mxGeometry width="50" height="50" relative="1" as="geometry">
            <mxPoint x="540" y="420" as="sourcePoint" />
            <mxPoint x="535" y="415" as="targetPoint" />
          </mxGeometry>
        </mxCell>
        <mxCell id="G0pUR8CLIHgKDuFHwaAW-16" value="" style="endArrow=none;html=1;rounded=0;" parent="1" edge="1">
          <mxGeometry width="50" height="50" relative="1" as="geometry">
            <mxPoint x="500" y="450" as="sourcePoint" />
            <mxPoint x="500" y="430" as="targetPoint" />
          </mxGeometry>
        </mxCell>
        <mxCell id="G0pUR8CLIHgKDuFHwaAW-17" value="" style="endArrow=none;html=1;rounded=0;" parent="1" edge="1">
          <mxGeometry width="50" height="50" relative="1" as="geometry">
            <mxPoint x="380" y="450" as="sourcePoint" />
            <mxPoint x="380" y="430" as="targetPoint" />
          </mxGeometry>
        </mxCell>
        <mxCell id="G0pUR8CLIHgKDuFHwaAW-18" value="1" style="text;html=1;align=center;verticalAlign=middle;resizable=0;points=[];autosize=1;strokeColor=none;fillColor=none;" parent="1" vertex="1">
          <mxGeometry x="370" y="435" width="30" height="30" as="geometry" />
        </mxCell>
        <mxCell id="G0pUR8CLIHgKDuFHwaAW-19" value="м" style="text;html=1;align=center;verticalAlign=middle;resizable=0;points=[];autosize=1;strokeColor=none;fillColor=none;" parent="1" vertex="1">
          <mxGeometry x="474" y="435" width="30" height="30" as="geometry" />
        </mxCell>
        <mxCell id="n1pS-fUpsqyy_29VAa4--1" value="Код модели" style="ellipse;whiteSpace=wrap;html=1;" vertex="1" parent="1">
          <mxGeometry x="370" y="515" width="90" height="50" as="geometry" />
        </mxCell>
        <mxCell id="n1pS-fUpsqyy_29VAa4--2" value="" style="endArrow=none;html=1;rounded=0;exitX=0.835;exitY=1.002;exitDx=0;exitDy=0;exitPerimeter=0;entryX=0.061;entryY=0.261;entryDx=0;entryDy=0;entryPerimeter=0;" edge="1" parent="1" source="RmznwL4d9NSOxr5QhM6p-124" target="n1pS-fUpsqyy_29VAa4--1">
          <mxGeometry width="50" height="50" relative="1" as="geometry">
            <mxPoint x="350" y="480" as="sourcePoint" />
            <mxPoint x="333" y="540" as="targetPoint" />
          </mxGeometry>
        </mxCell>
        <mxCell id="n1pS-fUpsqyy_29VAa4--3" value="Код сотрудника" style="ellipse;whiteSpace=wrap;html=1;" vertex="1" parent="1">
          <mxGeometry x="1241" y="290" width="90" height="50" as="geometry" />
        </mxCell>
        <mxCell id="n1pS-fUpsqyy_29VAa4--4" value="" style="endArrow=none;html=1;rounded=0;entryX=0.397;entryY=0.044;entryDx=0;entryDy=0;exitX=0.75;exitY=1;exitDx=0;exitDy=0;entryPerimeter=0;" edge="1" parent="1" source="RmznwL4d9NSOxr5QhM6p-138" target="n1pS-fUpsqyy_29VAa4--3">
          <mxGeometry width="50" height="50" relative="1" as="geometry">
            <mxPoint x="1291" y="235" as="sourcePoint" />
            <mxPoint x="1330" y="235" as="targetPoint" />
          </mxGeometry>
        </mxCell>
      </root>
    </mxGraphModel>
  </diagram>
</mxfile>
